<?xml version="1.0" encoding="UTF-8" standalone="no"?>
<!-- Created with Inkscape (http://www.inkscape.org/) -->

<svg
   xmlns:dc="http://purl.org/dc/elements/1.1/"
   xmlns:cc="http://creativecommons.org/ns#"
   xmlns:rdf="http://www.w3.org/1999/02/22-rdf-syntax-ns#"
   xmlns:svg="http://www.w3.org/2000/svg"
   xmlns="http://www.w3.org/2000/svg"
   xmlns:sodipodi="http://sodipodi.sourceforge.net/DTD/sodipodi-0.dtd"
   xmlns:inkscape="http://www.inkscape.org/namespaces/inkscape"
   width="500"
   height="500"
   id="svg2"
   version="1.1"
   inkscape:version="0.48.4 r9939"
   sodipodi:docname="New document 1">
  <defs
     id="defs4" />
  <sodipodi:namedview
     id="base"
     pagecolor="#ffffff"
     bordercolor="#666666"
     borderopacity="1.0"
     inkscape:pageopacity="0.0"
     inkscape:pageshadow="2"
     inkscape:zoom="0.7"
     inkscape:cx="425.04318"
     inkscape:cy="273.60951"
     inkscape:document-units="px"
     inkscape:current-layer="layer1"
     showgrid="false"
     inkscape:window-width="1362"
     inkscape:window-height="734"
     inkscape:window-x="2"
     inkscape:window-y="17"
     inkscape:window-maximized="0" />
  <metadata
     id="metadata7">
    <rdf:RDF>
      <cc:Work
         rdf:about="">
        <dc:format>image/svg+xml</dc:format>
        <dc:type
           rdf:resource="http://purl.org/dc/dcmitype/StillImage" />
        <dc:title></dc:title>
      </cc:Work>
    </rdf:RDF>
  </metadata>
  <g
     inkscape:label="Layer 1"
     inkscape:groupmode="layer"
     id="layer1"
     transform="translate(0,-552.36218)">
    <path
       style="fill:#CB4B16;fill-opacity:1;stroke:none;stroke-width:0.62500000000000000;stroke-linecap:butt;stroke-linejoin:miter;stroke-miterlimit:4;stroke-opacity:1;stroke-dasharray:none;stroke-dashoffset:0"
       d="M 250 0 C 111.92881 0 0 111.92881 0 250 C 1.8947806e-14 388.07119 111.92881 500 250 500 C 388.07119 500 500 388.07119 500 250 C 500 111.92881 388.07119 -5.6843419e-14 250 0 z M 218.09375 162.84375 C 225.15784 162.84392 231.76849 164.19273 237.90625 166.9375 C 244.15969 169.5301 247.28117 172.8165 247.28125 176.78125 C 247.28117 178.61136 246.76093 180.51769 245.71875 182.5 C 244.79223 184.3301 243.6396 185.25015 242.25 185.25 C 241.5551 185.25015 240.21863 184.56011 238.25 183.1875 C 236.28124 181.66268 233.49617 180.21637 229.90625 178.84375 C 226.43202 177.31894 222.45387 176.56265 217.9375 176.5625 C 210.6417 176.56265 204.623 178.6015 199.875 182.71875 C 195.12694 186.8363 192.74998 193.6391 192.75 203.09375 C 192.74998 209.65122 194.12689 215.14022 196.90625 219.5625 C 199.80136 223.98501 203.40266 227.1739 207.6875 229.15625 C 211.97227 231.1388 216.58281 233.50516 221.5625 236.25 C 226.54209 238.99503 231.18388 241.98516 235.46875 245.1875 C 239.75349 248.23751 243.28309 253.20023 246.0625 260.0625 C 248.95757 266.77241 250.40617 275.05653 250.40625 284.96875 C 250.40617 300.67592 247.10085 312.5077 240.5 320.4375 C 233.89901 328.21483 224.9831 332.09375 213.75 332.09375 C 203.67487 332.09375 195.23876 329.29862 188.40625 323.65625 C 181.5737 317.86139 178.15624 312.43865 178.15625 307.40625 C 178.15624 305.57632 178.67649 303.73624 179.71875 301.90625 C 180.8768 299.92383 182.06988 298.93753 183.34375 298.9375 C 184.27018 298.93753 185.45407 299.92383 186.84375 301.90625 L 191.6875 308.53125 C 193.42456 310.97121 196.16919 313.20506 199.875 315.1875 C 203.69656 317.01747 208.08282 317.93751 213.0625 317.9375 C 221.28466 317.93751 227.63977 315.24364 232.15625 309.90625 C 236.67261 304.4164 238.93743 296.56105 238.9375 286.34375 C 238.93743 279.48146 237.85649 273.6962 235.65625 268.96875 C 233.57169 264.08893 230.82706 260.34251 227.46875 257.75 C 224.22614 255.00514 220.54396 252.57253 216.375 250.4375 L 203.84375 244.03125 C 199.67472 241.89639 195.92084 239.39753 192.5625 236.5 C 189.31992 233.45017 186.60654 229.24373 184.40625 223.90625 C 182.32174 218.41649 181.28124 211.9412 181.28125 204.46875 C 181.28124 196.53906 182.36218 189.73626 184.5625 184.09375 C 186.8786 178.29903 189.95964 173.96009 193.78125 171.0625 C 197.60281 168.16523 201.46883 166.12639 205.40625 164.90625 C 209.45941 163.53395 213.69309 162.84392 218.09375 162.84375 z M 97.375 163.28125 L 128.125 163.28125 C 139.12648 163.28142 147.93026 167.25784 154.53125 175.1875 C 161.13209 182.96497 164.43741 195.22552 164.4375 212 L 164.4375 281.5625 C 164.43741 298.48965 161.13209 310.91395 154.53125 318.84375 C 147.93026 326.62108 139.12648 330.5 128.125 330.5 L 97.375 330.5 C 95.869509 330.5 94.604736 329.97373 93.5625 328.90625 C 92.636041 327.68628 92.156237 326.30622 92.15625 324.78125 L 92.15625 168.78125 C 92.156237 167.25645 92.636041 165.97389 93.5625 164.90625 C 94.604736 163.83894 95.869509 163.28142 97.375 163.28125 z M 272.21875 163.28125 C 276.04032 163.28142 277.93748 165.1215 277.9375 168.78125 L 277.9375 324.5625 C 277.93748 326.39246 277.37678 327.83878 276.21875 328.90625 C 275.06067 329.97373 273.7242 330.5 272.21875 330.5 C 270.59745 330.5 269.22054 329.97373 268.0625 328.90625 C 267.02023 327.83878 266.49999 326.39246 266.5 324.5625 L 266.5 168.78125 C 266.49999 165.1215 268.39715 163.28142 272.21875 163.28125 z M 297.25 163.28125 C 299.68191 163.28142 301.20221 164.59522 301.78125 167.1875 L 331.84375 307.625 L 349.1875 222.3125 C 349.76647 218.80519 351.80701 217.03136 355.28125 217.03125 C 358.40793 217.03136 360.37679 218.80519 361.1875 222.3125 L 378.5625 307.625 L 408.59375 167.1875 C 409.17266 164.59522 410.69296 163.28142 413.125 163.28125 C 414.74615 163.28142 416.26645 163.90519 417.65625 165.125 C 419.04579 166.34514 419.71862 167.79145 419.71875 169.46875 C 419.71862 170.23139 419.67817 170.82392 419.5625 171.28125 L 385.5 326.375 C 384.57346 330.03492 382.26819 331.875 378.5625 331.875 C 374.74082 331.875 372.476 330.03492 371.78125 326.375 L 355.28125 245.625 L 338.78125 326.375 C 338.08636 330.03492 335.82154 331.875 332 331.875 C 328.17837 331.875 325.8731 330.03492 325.0625 326.375 L 290.84375 171.28125 C 290.72794 170.82392 290.65625 170.23139 290.65625 169.46875 C 290.65625 167.79145 291.36033 166.34514 292.75 165.125 C 294.13966 163.90519 295.62871 163.28142 297.25 163.28125 z M 103.625 177.25 L 103.625 316.5625 L 128.125 316.5625 C 135.99973 316.56251 142.09013 313.63864 146.375 307.84375 C 150.77554 301.89641 152.96868 293.15227 152.96875 281.5625 L 152.96875 212 C 152.96868 200.41039 150.77554 191.73251 146.375 185.9375 C 142.09013 180.14278 135.99973 177.25015 128.125 177.25 L 103.625 177.25 z "
       id="path3007"
       transform="translate(0,552.36218)" />
  </g>
</svg>
